<svg width="42" height="30" viewBox="0 0 42 30" fill="none" xmlns="http://www.w3.org/2000/svg">
<path d="M15 21L9.064 26.936C8.40334 27.5965 7.56167 28.0463 6.6454 28.2285C5.72913 28.4107 4.77941 28.3172 3.9163 27.9597C3.0532 27.6022 2.31546 26.9969 1.79637 26.2201C1.27728 25.4434 1.00015 24.5302 1 23.596V21L3.714 7.432C4.07649 5.61845 5.05612 3.9865 6.48623 2.81383C7.91634 1.64115 9.70857 1.00019 11.558 1H30.442C32.2914 1.00019 34.0837 1.64115 35.5138 2.81383C36.9439 3.9865 37.9235 5.61845 38.286 7.432L41 21V23.594C40.9999 24.5282 40.7227 25.4414 40.2036 26.2181C39.6845 26.9949 38.9468 27.6002 38.0837 27.9577C37.2206 28.3152 36.2709 28.4087 35.3546 28.2265C34.4383 28.0443 33.5967 27.5945 32.936 26.934L27 21H15Z" stroke="white" stroke-width="2" stroke-linecap="round" stroke-linejoin="round"/>
<path d="M15 1L17 5H25L27 1" stroke="white" stroke-width="2" stroke-linecap="round" stroke-linejoin="round"/>
</svg>
